<svg xmlns="http://www.w3.org/2000/svg" viewBox="0 0 520 160" role="img" aria-label="Perk Nation logo">
  <defs>
    <linearGradient id="g" x1="0" y1="0" x2="1" y2="1">
      <stop offset="0" stop-color="#e6b84a"/>
      <stop offset="1" stop-color="#f5d27d"/>
    </linearGradient>
  </defs>
  <g fill="none" fill-rule="evenodd">
    <g transform="translate(0,8)">
      <rect x="0" y="0" width="120" height="120" rx="28" fill="url(#g)"/>
      <circle cx="60" cy="60" r="40" fill="#0d0d0d" opacity=".12"/>
      <path d="M92 28l-8 14 16-4-10 12 14 2-14 6 8 12-14-8-6 14-2-14-12 10 4-16-14 8 8-14-14-6 14-2-10-12 16 4z"
            fill="#0d0d0d" opacity=".18"/>
      <text x="60" y="76" text-anchor="middle" font-family="Rethink Sans, ui-sans-serif, system-ui" font-size="44" font-weight="900" fill="#0d0d0d">PN</text>
    </g>
    <g transform="translate(140,18)">
      <text x="0" y="58" font-family="Rethink Sans, ui-sans-serif, system-ui" font-size="56" font-weight="900" fill="#faf7f7" letter-spacing="-1">Perk</text>
      <text x="0" y="112" font-family="Rethink Sans, ui-sans-serif, system-ui" font-size="56" font-weight="900" fill="#faf7f7" letter-spacing="-1">Nation</text>
      <rect x="260" y="92" width="86" height="14" rx="7" fill="#e6b84a"/>
    </g>
  </g>
</svg>
