<svg xmlns="http://www.w3.org/2000/svg" viewBox="0 0 940 640" role="img" aria-label="Dining illustration">
  <defs>
    <radialGradient id="rg" cx="30%" cy="20%" r="80%">
      <stop offset="0" stop-color="#e6b84a" stop-opacity=".35"/>
      <stop offset="1" stop-color="#0d0d0d" stop-opacity="0"/>
    </radialGradient>
    <radialGradient id="rg2" cx="70%" cy="10%" r="80%">
      <stop offset="0" stop-color="#C33F16" stop-opacity=".22"/>
      <stop offset="1" stop-color="#0d0d0d" stop-opacity="0"/>
    </radialGradient>
  </defs>
  <rect width="940" height="640" rx="42" fill="#111"/>
  <rect width="940" height="640" rx="42" fill="url(#rg)"/>
  <rect width="940" height="640" rx="42" fill="url(#rg2)"/>

  <!-- abstract table -->
  <g opacity=".95">
    <rect x="80" y="110" width="780" height="440" rx="34" fill="#0d0d0d" opacity=".45" stroke="#faf7f7" stroke-opacity=".12"/>
  </g>

  <!-- plates -->
  <g>
    <circle cx="330" cy="330" r="150" fill="#faf7f7" opacity=".06" stroke="#faf7f7" stroke-opacity=".18"/>
    <circle cx="330" cy="330" r="92" fill="#0d0d0d" opacity=".30" stroke="#faf7f7" stroke-opacity=".10"/>
    <circle cx="620" cy="300" r="125" fill="#faf7f7" opacity=".05" stroke="#faf7f7" stroke-opacity=".16"/>
    <circle cx="620" cy="300" r="78" fill="#0d0d0d" opacity=".28" stroke="#faf7f7" stroke-opacity=".10"/>
  </g>

  <!-- garnish -->
  <g>
    <path d="M308 335c30-40 78-36 104 6-44 34-88 34-104-6z" fill="#e6b84a" opacity=".55"/>
    <path d="M594 300c24-32 64-28 86 6-36 28-72 28-86-6z" fill="#C33F16" opacity=".45"/>
  </g>

  <!-- phone mock -->
  <g transform="translate(690,380)">
    <rect x="-120" y="-170" width="210" height="300" rx="34" fill="#0d0d0d" opacity=".8" stroke="#faf7f7" stroke-opacity=".20"/>
    <rect x="-100" y="-140" width="170" height="240" rx="22" fill="#111" stroke="#faf7f7" stroke-opacity=".10"/>
    <rect x="-86" y="-122" width="142" height="40" rx="20" fill="#e6b84a" opacity=".92"/>
    <rect x="-86" y="-70" width="142" height="18" rx="9" fill="#faf7f7" opacity=".10"/>
    <rect x="-86" y="-44" width="112" height="18" rx="9" fill="#faf7f7" opacity=".08"/>
    <rect x="-86" y="-10" width="142" height="56" rx="18" fill="#faf7f7" opacity=".06"/>
    <rect x="-86" y="56" width="142" height="28" rx="14" fill="#C33F16" opacity=".30"/>
    <circle cx="-16" cy="132" r="7" fill="#faf7f7" opacity=".35"/>
  </g>

  <text x="110" y="560" font-family="Rethink Sans, system-ui" font-size="18" fill="#faf7f7" opacity=".70">Original illustration — replace with your own photography if desired.</text>
</svg>
